<?xml version="1.0" standalone="no"?>
<!DOCTYPE svg PUBLIC "-//W3C//DTD SVG 20010904//EN"
 "http://www.w3.org/TR/2001/REC-SVG-20010904/DTD/svg10.dtd">
<svg version="1.0" xmlns="http://www.w3.org/2000/svg"
 width="512.000000pt" height="512.000000pt" viewBox="0 0 512.000000 512.000000"
 preserveAspectRatio="xMidYMid meet">
<metadata>
Created by potrace 1.14, written by Peter Selinger 2001-2017
</metadata>
<g transform="translate(0.000000,512.000000) scale(0.100000,-0.100000)"
fill="#000000" stroke="none">
<path d="M1273 4442 c-161 -63 -293 -118 -293 -121 0 -3 130 -48 288 -99 l287
-93 1005 0 1005 0 287 93 c158 51 288 96 288 99 0 3 -134 58 -297 123 l-298
117 -990 -1 -990 -1 -292 -117z"/>
<path d="M998 4119 c39 -74 149 -284 246 -468 138 -263 176 -329 180 -310 13
61 84 715 78 720 -4 3 -126 45 -272 92 -146 47 -273 89 -284 93 -14 5 0 -28
52 -127z"/>
<path d="M3903 4157 c-155 -51 -284 -94 -287 -97 -5 -5 69 -666 80 -719 4 -19
43 48 180 310 97 184 207 394 245 467 38 72 69 132 67 131 -2 0 -130 -42 -285
-92z"/>
<path d="M598 3979 l-186 -209 136 -230 c125 -209 138 -228 144 -203 9 33 101
844 96 848 -2 2 -87 -91 -190 -206z"/>
<path d="M4330 4185 c0 -30 91 -825 98 -848 6 -25 19 -6 144 203 l136 230
-180 202 c-99 112 -184 207 -189 213 -6 6 -9 6 -9 0z"/>
<path d="M870 4165 c-1 -11 -25 -227 -54 -480 -29 -253 -52 -461 -51 -463 1
-1 139 -1 307 0 l306 3 -240 455 c-293 558 -267 510 -268 485z"/>
<path d="M3993 3704 l-251 -479 306 -3 c168 -1 306 -1 307 0 2 3 -98 885 -106
937 -3 16 -76 -113 -256 -455z"/>
<path d="M2013 4042 l-421 -2 -6 -38 c-11 -66 -86 -725 -84 -727 2 -2 206 164
453 367 248 203 459 376 469 384 11 7 18 15 15 16 -2 2 -194 2 -426 0z"/>
<path d="M2680 4041 c0 -2 12 -13 28 -25 15 -11 224 -182 465 -380 241 -197
440 -356 442 -354 4 4 -66 629 -81 720 l-6 38 -424 2 c-233 2 -424 1 -424 -1z"/>
<path d="M2060 3632 l-495 -407 498 -3 c273 -1 721 -1 994 0 l498 3 -498 408
c-273 224 -498 407 -500 406 -1 0 -225 -184 -497 -407z"/>
<path d="M4613 3455 c-73 -123 -133 -226 -133 -229 0 -3 95 -6 210 -6 129 0
210 4 210 10 0 11 -138 418 -148 436 -4 7 -59 -76 -139 -211z"/>
<path d="M360 3644 c-26 -65 -140 -405 -140 -414 0 -6 79 -10 210 -10 116 0
210 3 210 6 0 7 -249 426 -261 438 -5 5 -13 -3 -19 -20z"/>
<path d="M272 3113 c14 -16 429 -487 923 -1048 493 -561 911 -1033 927 -1050
21 -20 13 -4 -24 50 -30 44 -254 375 -498 735 -244 360 -533 788 -644 950
-110 162 -214 316 -230 342 l-31 47 -224 0 -225 1 26 -27z"/>
<path d="M802 3132 c6 -16 1553 -2300 1555 -2298 2 2 -202 504 -453 1117 -251
613 -460 1125 -465 1138 -8 19 -12 21 -24 11 -13 -10 -15 -8 -15 14 l0 26
-301 0 c-165 0 -299 -4 -297 -8z"/>
<path d="M1512 3131 c25 -71 1044 -2560 1048 -2560 4 0 1028 2501 1048 2559 2
7 -379 10 -1048 10 -644 0 -1050 -4 -1048 -9z"/>
<path d="M3720 3114 c0 -22 -2 -24 -15 -14 -12 10 -16 8 -24 -11 -5 -13 -214
-526 -465 -1139 -250 -612 -454 -1115 -452 -1117 1 -2 55 75 118 170 64 94
414 612 777 1151 364 538 661 980 661 982 0 2 -135 4 -300 4 l-300 0 0 -26z"/>
<path d="M4394 3092 c-34 -53 -1285 -1902 -1372 -2027 -36 -54 -45 -70 -24
-50 16 17 434 489 927 1050 494 561 909 1032 923 1048 l26 27 -225 -1 -224 0
-31 -47z"/>
</g>
</svg>
